<mxfile host="Electron" agent="Mozilla/5.0 (Windows NT 10.0; Win64; x64) AppleWebKit/537.36 (KHTML, like Gecko) draw.io/24.7.17 Chrome/128.0.6613.36 Electron/32.0.1 Safari/537.36" version="24.7.17">
  <diagram name="Page-1" id="xyKyZhIWEKwobQeXx5zt">
    <mxGraphModel dx="286" dy="606" grid="1" gridSize="10" guides="1" tooltips="1" connect="1" arrows="1" fold="1" page="1" pageScale="1" pageWidth="850" pageHeight="1100" math="0" shadow="0">
      <root>
        <mxCell id="0" />
        <mxCell id="1" parent="0" />
        <mxCell id="SoOfJxQyVTy4R2QkRM-9-2" value="Start" style="ellipse;whiteSpace=wrap;html=1;" vertex="1" parent="1">
          <mxGeometry x="100" width="120" height="80" as="geometry" />
        </mxCell>
        <mxCell id="SoOfJxQyVTy4R2QkRM-9-3" value="" style="endArrow=classic;html=1;rounded=0;exitX=0.5;exitY=1;exitDx=0;exitDy=0;" edge="1" parent="1" source="SoOfJxQyVTy4R2QkRM-9-2">
          <mxGeometry width="50" height="50" relative="1" as="geometry">
            <mxPoint x="130" y="240" as="sourcePoint" />
            <mxPoint x="160" y="110" as="targetPoint" />
          </mxGeometry>
        </mxCell>
        <mxCell id="SoOfJxQyVTy4R2QkRM-9-14" value="" style="edgeStyle=orthogonalEdgeStyle;rounded=0;orthogonalLoop=1;jettySize=auto;html=1;" edge="1" parent="1" target="SoOfJxQyVTy4R2QkRM-9-2">
          <mxGeometry relative="1" as="geometry">
            <mxPoint x="160" y="100" as="sourcePoint" />
          </mxGeometry>
        </mxCell>
        <mxCell id="SoOfJxQyVTy4R2QkRM-9-4" value="input number of&amp;nbsp;&lt;div&gt;hours&lt;/div&gt;" style="shape=parallelogram;perimeter=parallelogramPerimeter;whiteSpace=wrap;html=1;fixedSize=1;" vertex="1" parent="1">
          <mxGeometry x="100" y="230" width="120" height="60" as="geometry" />
        </mxCell>
        <mxCell id="SoOfJxQyVTy4R2QkRM-9-11" value="input cost of materials&amp;nbsp;" style="shape=parallelogram;perimeter=parallelogramPerimeter;whiteSpace=wrap;html=1;fixedSize=1;" vertex="1" parent="1">
          <mxGeometry x="100" y="320" width="120" height="60" as="geometry" />
        </mxCell>
        <mxCell id="SoOfJxQyVTy4R2QkRM-9-12" value="" style="endArrow=classic;html=1;rounded=0;" edge="1" parent="1">
          <mxGeometry width="50" height="50" relative="1" as="geometry">
            <mxPoint x="160" y="290" as="sourcePoint" />
            <mxPoint x="160" y="320" as="targetPoint" />
          </mxGeometry>
        </mxCell>
        <mxCell id="SoOfJxQyVTy4R2QkRM-9-15" value="Rate = 30&amp;nbsp;" style="rounded=0;whiteSpace=wrap;html=1;" vertex="1" parent="1">
          <mxGeometry x="100" y="110" width="120" height="60" as="geometry" />
        </mxCell>
        <mxCell id="SoOfJxQyVTy4R2QkRM-9-16" value="" style="endArrow=classic;html=1;rounded=0;exitX=0.5;exitY=1;exitDx=0;exitDy=0;entryX=0.5;entryY=0;entryDx=0;entryDy=0;" edge="1" parent="1" source="SoOfJxQyVTy4R2QkRM-9-15" target="SoOfJxQyVTy4R2QkRM-9-4">
          <mxGeometry width="50" height="50" relative="1" as="geometry">
            <mxPoint x="130" y="140" as="sourcePoint" />
            <mxPoint x="180" y="90" as="targetPoint" />
          </mxGeometry>
        </mxCell>
        <mxCell id="SoOfJxQyVTy4R2QkRM-9-17" value="" style="endArrow=classic;html=1;rounded=0;exitX=0.5;exitY=1;exitDx=0;exitDy=0;" edge="1" parent="1" source="SoOfJxQyVTy4R2QkRM-9-11">
          <mxGeometry width="50" height="50" relative="1" as="geometry">
            <mxPoint x="130" y="340" as="sourcePoint" />
            <mxPoint x="160" y="420" as="targetPoint" />
          </mxGeometry>
        </mxCell>
        <mxCell id="SoOfJxQyVTy4R2QkRM-9-18" value="CostOne = number of hours * 30&amp;nbsp;" style="rounded=0;whiteSpace=wrap;html=1;" vertex="1" parent="1">
          <mxGeometry x="100" y="420" width="120" height="60" as="geometry" />
        </mxCell>
        <mxCell id="SoOfJxQyVTy4R2QkRM-9-19" value="" style="endArrow=classic;html=1;rounded=0;exitX=0.5;exitY=1;exitDx=0;exitDy=0;" edge="1" parent="1" source="SoOfJxQyVTy4R2QkRM-9-18">
          <mxGeometry width="50" height="50" relative="1" as="geometry">
            <mxPoint x="130" y="340" as="sourcePoint" />
            <mxPoint x="160" y="530" as="targetPoint" />
          </mxGeometry>
        </mxCell>
        <mxCell id="SoOfJxQyVTy4R2QkRM-9-20" value="CostTwo = cost of materials * 1.2" style="rounded=0;whiteSpace=wrap;html=1;" vertex="1" parent="1">
          <mxGeometry x="100" y="520" width="120" height="60" as="geometry" />
        </mxCell>
        <mxCell id="SoOfJxQyVTy4R2QkRM-9-21" value="" style="endArrow=classic;html=1;rounded=0;exitX=0.5;exitY=1;exitDx=0;exitDy=0;" edge="1" parent="1" source="SoOfJxQyVTy4R2QkRM-9-20">
          <mxGeometry width="50" height="50" relative="1" as="geometry">
            <mxPoint x="130" y="640" as="sourcePoint" />
            <mxPoint x="160" y="630" as="targetPoint" />
          </mxGeometry>
        </mxCell>
        <mxCell id="SoOfJxQyVTy4R2QkRM-9-22" value="CostThree = CostOne + CostTwo" style="rounded=0;whiteSpace=wrap;html=1;" vertex="1" parent="1">
          <mxGeometry x="100" y="630" width="120" height="60" as="geometry" />
        </mxCell>
        <mxCell id="SoOfJxQyVTy4R2QkRM-9-23" value="output CostThree" style="shape=parallelogram;perimeter=parallelogramPerimeter;whiteSpace=wrap;html=1;fixedSize=1;" vertex="1" parent="1">
          <mxGeometry x="100" y="750" width="120" height="60" as="geometry" />
        </mxCell>
        <mxCell id="SoOfJxQyVTy4R2QkRM-9-24" value="" style="endArrow=classic;html=1;rounded=0;exitX=0.5;exitY=1;exitDx=0;exitDy=0;entryX=0.5;entryY=0;entryDx=0;entryDy=0;" edge="1" parent="1" source="SoOfJxQyVTy4R2QkRM-9-22" target="SoOfJxQyVTy4R2QkRM-9-23">
          <mxGeometry width="50" height="50" relative="1" as="geometry">
            <mxPoint x="130" y="640" as="sourcePoint" />
            <mxPoint x="180" y="590" as="targetPoint" />
          </mxGeometry>
        </mxCell>
        <mxCell id="SoOfJxQyVTy4R2QkRM-9-25" value="" style="endArrow=classic;html=1;rounded=0;exitX=0.5;exitY=1;exitDx=0;exitDy=0;" edge="1" parent="1" source="SoOfJxQyVTy4R2QkRM-9-23">
          <mxGeometry width="50" height="50" relative="1" as="geometry">
            <mxPoint x="130" y="940" as="sourcePoint" />
            <mxPoint x="160" y="850" as="targetPoint" />
          </mxGeometry>
        </mxCell>
        <mxCell id="SoOfJxQyVTy4R2QkRM-9-27" value="output End of program" style="shape=parallelogram;perimeter=parallelogramPerimeter;whiteSpace=wrap;html=1;fixedSize=1;" vertex="1" parent="1">
          <mxGeometry x="100" y="850" width="120" height="60" as="geometry" />
        </mxCell>
        <mxCell id="SoOfJxQyVTy4R2QkRM-9-28" value="stop" style="ellipse;whiteSpace=wrap;html=1;" vertex="1" parent="1">
          <mxGeometry x="100" y="940" width="120" height="80" as="geometry" />
        </mxCell>
        <mxCell id="SoOfJxQyVTy4R2QkRM-9-29" value="" style="endArrow=classic;html=1;rounded=0;exitX=0.5;exitY=1;exitDx=0;exitDy=0;entryX=0.5;entryY=0;entryDx=0;entryDy=0;" edge="1" parent="1" source="SoOfJxQyVTy4R2QkRM-9-27" target="SoOfJxQyVTy4R2QkRM-9-28">
          <mxGeometry width="50" height="50" relative="1" as="geometry">
            <mxPoint x="150" y="960" as="sourcePoint" />
            <mxPoint x="200" y="910" as="targetPoint" />
          </mxGeometry>
        </mxCell>
      </root>
    </mxGraphModel>
  </diagram>
</mxfile>
